# Alias OBJ Model File
# Exported from SketchUp, (c) 2000-2012 Trimble Navigation Limited
# File units = millimeters

mtllib demo1.mtl

g Mesh1 Model

usemtl FrontColor
v 2791.1 0 -1922.68
vt -109.886 75.6962
vn 0 -1 -0
v 2791.1 0 -4821.68
vt -109.886 189.83
v 9098.1 0 -4821.68
vt -358.193 189.83
v 9098.1 0 -1922.68
vt -358.193 75.6962
f 1/1/1 2/2/1 3/3/1 4/4/1 

usemtl Pavers_Driveway_Brick
vt -8.62864 0
vn -1 0 -0
vt -3.44074 0
v 2791.1 3111 -1922.68
vt -3.44074 5.56729
v 2791.1 3111 -4821.68
vt -8.62864 5.56729
f 2/5/2 1/6/2 5/7/2 6/8/2 

usemtl Groundcover_River_Rock_4_inch
v 9098.1 3111 -1922.68
vt 14.9247 5.10335
vn 0 0 1
v 5944.6 3111 -1922.68
vt 9.75163 5.10335
v 5827.25 2766.61 -1922.68
vt 9.55914 4.53841
v 5635.76 2457.26 -1922.68
vt 9.24501 4.03094
v 5379.84 2198.65 -1922.68
vt 8.82519 3.60672
v 5072.5 2003.94 -1922.68
vt 8.32103 3.2873
v 4729.36 1883.01 -1922.68
vt 7.75813 3.08892
v 4367.85 1842 -1922.68
vt 7.1651 3.02165
v 4006.34 1883.01 -1922.68
vt 6.57207 3.08892
v 3663.19 2003.94 -1922.68
vt 6.00918 3.2873
v 3355.86 2198.65 -1922.68
vt 5.50501 3.60672
v 3099.94 2457.26 -1922.68
vt 5.0852 4.03094
v 2908.44 2766.61 -1922.68
vt 4.77106 4.53841
vt 4.57857 5.10335
vt 4.57857 0
vt 14.9247 0
f 7/9/3 8/10/3 9/11/3 10/12/3 11/13/3 12/14/3 13/15/3 14/16/3 15/17/3 16/18/3 17/19/3 18/20/3 19/21/3 5/22/3 1/23/3 4/24/3 

usemtl Vegetation_Grass_Artificial
v 6513.1 3111 -3372.18
vt 10.6842 5.5318
vn 0 1 -0
vt 9.75163 3.15401
vt 14.9247 3.15401
f 20/25/4 8/26/4 7/27/4

v 4227.1 3111 -3372.18
vt 6.93421 5.5318
f 21/28/4 8/26/4 20/25/4

v 5944.6 3111 -783.683
vt 9.75163 1.28557
f 21/28/4 22/29/4 8/26/4

vt 4.57857 7.90959
f 6/30/4 22/29/4 21/28/4

vt 4.57857 3.15401
f 5/31/4 22/29/4 6/30/4

v 2791.1 3111 -783.683
vt 4.57857 1.28557
f 22/29/4 5/31/4 23/32/4

usemtl FrontColor
vt -75.6962 80.4942
vn -0.946561 -0.322525 -0
vt -75.6962 66.1703
vn -0.90418 -0.427153 -0
v 2908.44 2766.61 -783.683
vt -30.8537 66.1703
vt -30.8537 80.4942
f 5/33/5 19/34/6 24/35/6 23/36/5 

vt -75.6962 32.3451
vt -75.6962 18.0212
vn -0.785537 -0.618814 -0
v 3099.94 2457.26 -783.683
vt -30.8537 18.0212
vt -30.8537 32.3451
f 19/37/6 18/38/7 25/39/7 24/40/6 

vt -75.6962 -17.0835
vt -75.6962 -31.4075
vn -0.626982 -0.779034 -0
v 3355.86 2198.65 -783.683
vt -30.8537 -31.4075
vt -30.8537 -17.0835
f 18/41/7 17/42/8 26/43/8 25/44/7 

vt -75.6962 -65.2802
vt -75.6962 -79.6042
vn -0.436569 -0.899671 -0
v 3663.19 2003.94 -783.683
vt -30.8537 -79.6042
vt -30.8537 -65.2802
f 17/45/8 16/46/9 27/47/9 26/48/8 

vt -75.6962 -109.796
vt -75.6962 -124.12
vn -0.223975 -0.974595 -0
v 4006.34 1883.01 -783.683
vt -30.8537 -124.12
vt -30.8537 -109.796
f 16/49/9 15/50/10 28/51/10 27/52/9 

vt -75.6962 -148.369
vt -75.6962 -162.693
vn 3.77103e-016 -1 -0
v 4367.85 1842 -783.683
vt -30.8537 -162.693
vt -30.8537 -148.369
f 15/53/10 14/54/11 29/55/11 28/56/10 

vt 75.6962 179.04
vt 75.6962 193.364
vn 0.223975 -0.974595 -0
v 4729.36 1883.01 -783.683
vt 30.8537 193.364
vt 30.8537 179.04
f 14/57/11 13/58/12 30/59/12 29/60/11 

vt 75.6962 200.25
vt 75.6962 214.574
vn 0.436569 -0.899671 -0
v 5072.5 2003.94 -783.683
vt 30.8537 214.574
vt 30.8537 200.25
f 13/61/12 12/62/13 31/63/13 30/64/12 

vt 75.6962 210.921
vt 75.6962 225.245
vn 0.626982 -0.779034 -0
v 5379.84 2198.65 -783.683
vt 30.8537 225.245
vt 30.8537 210.921
f 12/65/13 11/66/14 32/67/14 31/68/13 

vt 75.6962 210.511
vt 75.6962 224.835
vn 0.785537 -0.618814 -0
v 5635.76 2457.26 -783.683
vt 30.8537 224.835
vt 30.8537 210.511
f 11/69/14 10/70/15 33/71/15 32/72/14 

vt 75.6962 199.042
vt 75.6962 213.366
vn 0.90418 -0.427153 -0
v 5827.25 2766.61 -783.683
vt 30.8537 213.366
vt 30.8537 199.042
f 10/73/15 9/74/16 34/75/16 33/76/15 

vt 75.6962 177.095
vt 75.6962 191.419
vn 0.946561 -0.322525 -0
vt 30.8537 191.419
vt 30.8537 177.095
f 9/77/16 8/78/17 22/79/17 34/80/16 

vt 234.039 122.48
vt 109.886 122.48
vt 114.506 108.922
vt 122.045 96.7425
vt 132.12 86.5612
vt 144.22 78.8952
vt 157.73 74.1341
vt 171.962 72.5197
vt 186.195 74.1341
vt 199.705 78.8952
vt 211.805 86.5612
vt 221.88 96.7425
vt 229.419 108.922
f 22/81/3 23/82/3 24/83/3 25/84/3 26/85/3 27/86/3 28/87/3 29/88/3 30/89/3 31/90/3 32/91/3 33/92/3 34/93/3 

usemtl Vegetation_Grass_Artificial
v 4227.1 3111 -4226.68
vt 6.93421 6.93354
f 35/94/4 6/30/4 21/28/4

v 9098.1 3111 -4821.68
vt 14.9247 7.90959
f 6/30/4 35/94/4 36/95/4

v 6513.1 3111 -4226.68
vt 10.6842 6.93354
f 36/95/4 35/94/4 37/96/4

usemtl FrontColor
vt -256.421 122.48
vn 0 0 -1
vt -166.421 122.48
v 4227.1 3937 -4226.68
vt -166.421 155
v 6513.1 3937 -4226.68
vt -256.421 155
f 37/97/18 35/98/18 38/99/18 39/100/18 

vt -166.405 122.48
vt -132.763 122.48
v 4227.1 3937 -3372.18
vt -132.763 155
vt -166.405 155
f 35/101/2 21/102/2 40/103/2 38/104/2 

vt 166.421 122.48
vt 256.421 122.48
v 6513.1 3937 -3372.18
vt 256.421 155
vt 166.421 155
f 21/105/3 20/106/3 41/107/3 40/108/3 

vt 132.763 122.48
vn 1 0 -0
vt 166.405 122.48
vt 166.405 155
vt 132.763 155
f 20/109/19 37/110/19 39/111/19 41/112/19 

usemtl Vegetation_Grass_Artificial
f 20/25/4 7/27/4 37/96/4

f 36/95/4 37/96/4 7/27/4

usemtl Pavers_with_Grass_Herringbone
vt 2.10267 0
vt 5.27306 0
vt 5.27306 3.51148
vt 2.10267 3.51148
f 4/113/19 3/114/19 36/115/19 7/116/19 

usemtl Groundcover_Gravel_1_inch
vt -19.8996 0
vt -6.10476 0
vt -6.10476 6.80446
vt -19.8996 6.80446
f 3/117/18 2/118/18 6/119/18 36/120/18 

usemtl FrontColor
vt 166.421 166.405
vt 166.421 132.763
vt 256.421 132.763
vt 256.421 166.405
f 38/121/4 40/122/4 41/123/4 39/124/4 

